<svg width="51" height="51" viewBox="0 0 51 51" fill="none" xmlns="http://www.w3.org/2000/svg">
<path d="M46.9009 0H4.09913C1.836 0 0 1.836 0 4.09913V46.9009C0 49.164 1.836 51 4.09913 51H46.9009C49.164 51 51 49.164 51 46.9009V4.09913C51 1.836 49.164 0 46.9009 0ZM46.9009 46.92C18.3536 46.9136 4.08 46.9072 4.08 46.9009C4.08637 18.3536 4.09275 4.08 4.09913 4.08C32.6464 4.08637 46.92 4.09275 46.92 4.09913C46.9136 32.6464 46.9072 46.92 46.9009 46.92ZM7.56075 19.1186H15.1279V43.4584H7.56075V19.1186ZM11.3475 15.7909C13.7636 15.7909 15.7335 13.8274 15.7335 11.4049C15.7335 10.8289 15.6201 10.2586 15.3996 9.72643C15.1792 9.19429 14.8561 8.71078 14.4489 8.3035C14.0416 7.89623 13.5581 7.57316 13.0259 7.35274C12.4938 7.13232 11.9235 7.01888 11.3475 7.01888C10.7715 7.01888 10.2012 7.13232 9.66905 7.35274C9.13692 7.57316 8.65341 7.89623 8.24613 8.3035C7.83885 8.71078 7.51578 9.19429 7.29536 9.72643C7.07495 10.2586 6.9615 10.8289 6.9615 11.4049C6.95512 13.8274 8.91862 15.7909 11.3475 15.7909ZM27.4316 31.416C27.4316 28.2412 28.0372 25.1685 31.9706 25.1685C35.8466 25.1685 35.904 28.7959 35.904 31.62V43.4584H43.4647V30.1091C43.4647 23.5556 42.0495 18.513 34.3931 18.513C30.7147 18.513 28.2476 20.5339 27.234 22.4464H27.132V19.1186H19.8709V43.4584H27.4316V31.416Z" fill="#808080"/>
</svg>
